<?xml version="1.0" encoding="UTF-8"?><svg id="Capa_2" xmlns="http://www.w3.org/2000/svg" viewBox="0 0 50.04 50.04"><defs><style>.cls-1{fill:#564c45;}</style></defs><g id="Capa_1-2"><path class="cls-1" d="m48.81,6.18c-1.09-2.13-2.82-3.86-4.95-4.95-2.42-1.23-5.59-1.23-11.93-1.23h-13.82c-6.34,0-9.51,0-11.93,1.23-2.13,1.09-3.86,2.82-4.95,4.95-1.23,2.42-1.23,5.59-1.23,11.93v13.82c0,6.34,0,9.51,1.23,11.93,1.09,2.13,2.82,3.86,4.95,4.95,2.42,1.23,5.59,1.23,11.93,1.23h13.82c6.34,0,9.51,0,11.93-1.23,2.13-1.09,3.86-2.82,4.95-4.95,1.23-2.42,1.23-5.59,1.23-11.93v-13.82c0-6.34,0-9.51-1.23-11.93Zm-8.91,24.76c-.29.8-1.07,1.76-3.25,1.76-1.56,0-4.67-.46-8.08-3.66-2.96.48-5.9,1.44-7.77,2.08-2.34,4.16-5.61,8.79-8.86,8.79-.78,0-1.56-.16-2.18-.8-.62-.48-.93-1.44-.78-2.24.47-2.88,5.9-5.42,8.39-6.39,1.85-3.34,3.41-7.65,4.34-10.53-1.71-3.98-2.18-7.81-1.09-9.73.47-.8,1.25-1.28,2.18-1.28,2.47,0,3.41,2.38,3.41,4.78,0,2.56-.62,5.26-1.4,7.67.62.96,2.16,3.5,4.34,5.75,1.54-.16,7.91-1.28,10.24,1.28.62.64.92,1.76.51,2.52Z"/><path class="cls-1" d="m23.85,12.14c0-.8-.16-1.76-.93-1.76-.31,0-.62.16-.78.48-.47.96-.62,3.52.62,7.03.62-1.76.93-3.82,1.09-5.75Z"/><path class="cls-1" d="m10.5,37.2c-.16.32,0,.64.16.96.16.16.47.16.62.16,1.25,0,3.27-2.24,5.43-5.75-3.56,1.58-6.06,3.34-6.21,4.62Z"/><path class="cls-1" d="m24.01,23.79c-.31.96-1.25,3.66-2.03,5.1,2.03-.74,4.59-1.33,4.82-1.3-.63-.79-2.02-2.37-2.79-3.81Z"/><path class="cls-1" d="m35.97,28.41c-1.87-.32-4.5,0-5.59.16,1.25,1.12,2.78,1.92,4.5,2.4,1.4.32,2.18-.32,2.34-.96.16-.96-.62-1.44-1.25-1.6Z"/></g></svg>