<?xml version="1.0" encoding="UTF-8"?><svg id="Capa_2" xmlns="http://www.w3.org/2000/svg" viewBox="0 0 54.82 50.04"><defs><style>.cls-1{fill:#564c45;}</style></defs><g id="Capa_1-2"><path class="cls-1" d="m27.4,0h.05C29.5,0,31.4.69,32.93,1.84h0c1.05.79,1.93,1.81,2.55,2.97l10.2,17.75.06.14,7.81,13.55c.83,1.4,1.27,3.01,1.27,4.65,0,1.29-.27,2.52-.75,3.63v.04c-.36.83-.84,1.59-1.44,2.28-.68.79-1.48,1.46-2.39,1.98-1.35.79-2.88,1.2-4.44,1.22h-.15c-1.98,0-3.9-.64-5.48-1.84h0c-1.05-.79-1.93-1.81-2.55-2.97l-10.2-17.75-.06-.14-7.85-13.61c-.81-1.39-1.23-2.97-1.23-4.59,0-.96.15-1.9.43-2.78l.02-.05.03-.07c.12-.36.27-.77.27-.77.36-.82.85-1.58,1.43-2.25l.14-.17.03-.04h0s0,0,0,0l.02-.03h.02c.62-.69,1.35-1.28,2.19-1.77,1.35-.79,2.88-1.2,4.44-1.22h.1ZM9.16,50.04h-.14c-1.56-.02-3.1-.44-4.44-1.22-.91-.52-1.71-1.19-2.39-1.98-.6-.69-1.08-1.45-1.45-2.28v-.04c-.49-1.14-.74-2.38-.74-3.63,0-1.7.46-3.29,1.27-4.65l7.81-13.55.06-.14,6.94-12.07c.17,1.47.62,2.92,1.36,4.24l.13.22,7.71,13.38v-.03l.15.33.66,1.16-8.88,15.45c-.62,1.16-1.5,2.18-2.55,2.97h0c-1.58,1.2-3.5,1.84-5.48,1.84h-.02Z"/></g></svg>