<?xml version="1.0" encoding="UTF-8"?><svg id="Capa_2" xmlns="http://www.w3.org/2000/svg" viewBox="0 0 45.21 50.04"><defs><style>.cls-1{fill:#564c45;}</style></defs><g id="Capa_1-2"><path class="cls-1" d="m45.21,43.78c0,1.78-.75,3.48-2.08,4.67s-3.11,1.75-4.88,1.54c-3.19-.47-5.52-3.24-5.44-6.46V6.51c-.08-3.22,2.26-6,5.45-6.46,1.77-.21,3.54.35,4.87,1.54,1.33,1.19,2.08,2.89,2.07,4.67v37.53Z"/><path class="cls-1" d="m6.2,37.65c3.42,0,6.2,2.78,6.2,6.2s-2.78,6.2-6.2,6.2-6.2-2.78-6.2-6.2,2.78-6.2,6.2-6.2Zm16.31-18.79c-3.44.19-6.11,3.07-6.03,6.52v16.65c0,4.52,1.99,7.26,4.9,7.85,1.83.37,3.73-.1,5.17-1.28,1.44-1.18,2.28-2.95,2.27-4.82v-18.68c0-1.67-.66-3.27-1.85-4.44-1.19-1.17-2.8-1.82-4.46-1.79h0Z"/></g></svg>