<?xml version="1.0" encoding="UTF-8"?><svg id="Capa_2" xmlns="http://www.w3.org/2000/svg" viewBox="0 0 39.89 50.04"><defs><style>.cls-1{fill:#564c45;fill-rule:evenodd;}</style></defs><g id="Capa_1-2"><path class="cls-1" d="m1.07,30.36c-.65,1.56-1.01,3.22-1.07,4.9.09,1.04.44,2.04,1.03,2.9,1.1,1.28,2.43,2.34,3.91,3.14l9.59,6.38c1.18.94,2.51,1.68,3.93,2.18.92.22,1.88.22,2.8,0,1.43-.5,2.77-1.23,3.96-2.17l9.69-6.39c1.5-.8,2.84-1.87,3.96-3.16.59-.87.94-1.88,1.03-2.92-.06-1.7-.44-3.37-1.1-4.94L30.32,3.64c-.19-.86-.53-1.69-1.01-2.43-.35-.42-.8-.75-1.31-.95-.85-.23-1.74-.31-2.62-.23h-11.03c-.88-.08-1.77,0-2.62.23-.51.2-.96.53-1.31.96-.48.74-.82,1.57-1,2.43L1.07,30.37h0ZM25.82,5.69c.39.63.67,1.32.82,2.04l7.28,23.9c-2.73-1.42-5.67-2.41-8.7-2.94l-4.73-16c-.1-.33-.45-.51-.77-.41-.07.02-.13.05-.19.09-.11.08-.18.19-.22.32l-4.67,16c-3.05.53-5.99,1.53-8.74,2.95L13.21,7.74c.15-.73.43-1.42.83-2.04.29-.36.66-.63,1.09-.8.72-.19,1.46-.26,2.2-.19h5.22c.74-.07,1.48,0,2.2.19.43.17.8.45,1.09.81h0Zm-5.63,28.8c2.25.13,4.48-.48,6.36-1.73.43,1.36.29,2.83-.39,4.08-.69,1.17-1.69,2.13-2.89,2.77-1.26.8-2.34,1.5-2.34,3.34,0,.59.13,1.18.39,1.71-1.74-.72-2.87-2.42-2.87-4.3v-.11c0-1.28,0-2.85-1.8-2.85-.25,0-.5.05-.73.14-.47.19-.84.56-1.03,1.03-.1.23-.15.48-.15.73-1.23-1.35-1.89-3.12-1.85-4.94,0-.79.1-1.58.33-2.33.75,1.42,3.59,2.47,6.97,2.47h0Z"/></g></svg>