<?xml version="1.0" encoding="UTF-8"?><svg id="Capa_2" xmlns="http://www.w3.org/2000/svg" viewBox="0 0 50.04 50.04"><defs><style>.cls-1{fill:#564c45;}</style></defs><g id="Capa_1-2"><path class="cls-1" d="m25.02,0C11.2,0,0,11.2,0,25.02s11.2,25.02,25.02,25.02,25.02-11.2,25.02-25.02S38.85,0,25.02,0Zm-10.51,16.01c1.57,0,2.79,1.15,2.93,2.5.15,1.22-.36,2.29-1.71,2.93-.72.36-1,.36-1.15.15-.07-.15,0-.28.15-.43,1.29-1.07,1.29-1.93,1.14-3.14-.07-.79-.64-1.29-1.21-1.29-2.51,0-6.08,5.57-5.58,9.65.22,1.57,1.15,3.43,3.14,3.43.64,0,1.36-.21,2-.5,1.04-.56,1.67-.98,2.29-1.67-.15-1.85,1.47-4.27,3.86-4.27,1.08,0,1.93.43,2,1.22.14,1.07-.79,1.21-1.07,1.21s-.79-.07-.79-.36c-.06-.29.64-.15.58-.79-.07-.43-.51-.57-.93-.57-1.51,0-2.36,2.08-2.15,3.35.07.58.36,1.15.94,1.15.42,0,1.07-.64,1.28-1.57.15-.64.72-1.08,1.22-1.08.21,0,.35.07.42.36v.29c-.06.29-.29,1.15-.21,1.36,0,.15.07.36.36.36.19,0,.91-.38,1.62-.96.24-1.23.52-2.7.52-2.83.07-.51.29-1,1.29-1,.22,0,.36.07.43.36v.29l-.29,1.29c.93-1.21,2.29-2.07,3.14-2.07.36,0,.64.21.64.57,0,.21,0,.57-.15.93-.28.78-.64,2-.86,3.07,0,.29.07.57.43.57s1.43-.42,2.28-1.57h.02c0-.15-.02-.28-.02-.42,0-.86.07-1.57.22-2.08.15-.57.86-1.07,1.29-1.07.21,0,.43.14.43.35,0,.07,0,.22-.07.29-.29.94-.51,1.79-.51,2.65,0,.51.08,1.21.22,1.65,0,.07.06.15.14.15.15,0,1.15-.93,1.86-2.15-.64-.42-1-1.14-1-2,0-1.51.94-2.29,1.79-2.29.72,0,1.29.5,1.29,1.5,0,.64-.21,1.36-.57,2h.21c.46.02.91-.17,1.21-.5.07-.11.17-.2.29-.24.7-.89,1.73-1.55,2.94-1.55,1,0,1.92.43,2,1.21.15,1.07-.79,1.29-1.08,1.29s-.79-.07-.79-.36.64-.15.58-.78c-.07-.43-.51-.58-.94-.58-1.43,0-2.35,1.86-2.14,3.36.07.57.36,1.21.93,1.21.43,0,1.07-.64,1.36-1.57.14-.57.72-1.08,1.21-1.08.22,0,.36.07.43.36,0,.15,0,.43-.29,1.36-.36.64-.36,1-.28,1.29.06.57.35,1,.64,1.21.06.07.14.21.14.21,0,.15-.08.29-.29.29-.07,0-.14,0-.21-.07-1.07-.43-1.51-1.15-1.65-1.87-.43.51-.93.79-1.51.79-.93,0-1.85-.86-2-1.93-.04-.46,0-.92.15-1.35-.42.27-.88.42-1.3.42h-.35c-.94,1.36-1.94,2.29-2.65,2.71-.24.13-.51.2-.79.22-.14,0-.36-.07-.42-.22-.2-.32-.33-.81-.41-1.38-1,1.09-2.39,1.68-3.03,1.68-.72,0-1.14-.43-1.21-1.15v-.78c.21-1.57.79-2.51.79-2.79,0-.07-.07-.14-.15-.15-.5,0-2.14,1.72-2.43,2.87l-.22.93c-.14.64-.78,1.07-1.21,1.07-.21,0-.36-.07-.42-.36v-.29l.09-.49c-.91.64-1.81,1.06-2.24,1.06-.64,0-1-.36-1.07-.86-.43.58-.93.86-1.57.86-.74,0-1.46-.51-1.8-1.24-.51.58-1.09,1.16-1.78,1.6-1,.64-2.14,1.14-3.5,1.14-1.21,0-2.29-.64-2.86-1.21-.86-.79-1.36-2-1.43-3.14-.42-3.5,1.72-8.01,5-10.01.79-.43,1.58-.71,2.36-.71h0Zm20.37,6.86c-.21,0-.36.36-.36.71,0,.58.28,1.22.64,1.58.15-.39.21-.81.22-1.22,0-.71-.29-1.07-.51-1.07h0Z"/></g></svg>