<?xml version="1.0" encoding="UTF-8"?><svg id="Capa_2" xmlns="http://www.w3.org/2000/svg" viewBox="0 0 50.03 50.04"><defs><style>.cls-1{fill:#564c45;}</style></defs><g id="Capa_1-2"><path class="cls-1" d="m25.08,0c13.68.03,24.95,11.33,24.95,25,0,13.68-11.38,25.12-24.93,25.05C11.09,49.97-.09,38.64,0,24.62.09,11.22,11.55-.03,25.08,0Zm-9.17,20.23v-10.37c3.92,2.29,7.27,4.04,10.39,6.14,2.9,1.96,5.35,3.19,8.88.84,3.47-2.31,7.73-1.78,11.82-1.05C44.53,5.53,30.27-1.58,18.92,1.57,8.7,4.41-.71,16.08,1.61,23.39c4.01-3.44,7.72-8.06,14.3-3.16Zm7.25,7.6c1.52,2.66,3.01,5.24,4.48,7.83.87,1.54,1.44,3.29,3.93,1.97,2.43-1.29,1.86-2.66.75-4.47-1.59-2.59-2.99-5.3-4.46-7.94,1.88-1.09,3.49-2.01,5.12-2.95-.41-.64-.49-.95-.69-1.07-4.36-2.65-8.68-5.38-13.14-7.87-1.72-.97-1.87.71-1.89,1.81-.04,2.56.03,5.12.15,7.67.12,2.5.36,4.99.59,8.01,1.99-1.15,3.47-2,5.16-2.98Z"/></g></svg>