<?xml version="1.0" encoding="UTF-8"?><svg id="Capa_2" xmlns="http://www.w3.org/2000/svg" viewBox="0 0 47.91 50.04"><defs><style>.cls-1{fill-rule:evenodd;}.cls-1,.cls-2{fill:#564c45;}</style></defs><g id="Capa_1-2"><path class="cls-2" d="m14.99,8.96c-1.24,0-2.24,1-2.24,2.24s1,2.24,2.24,2.24h9.48l-8.36,4.77c-.88.5-1.31,1.54-1.05,2.52.26.98,1.15,1.66,2.16,1.66h10.75c.25,0,.45.2.45.45v5.16c0,.12-.05.23-.13.32l-4.03,4.03c-.17.17-.46.17-.63,0l-4.82-4.82c-.87-.87-2.29-.87-3.17,0-.87.87-.87,2.29,0,3.17l6.72,6.72c.87.87,2.29.87,3.17,0l6.72-6.72c.42-.42.66-.99.66-1.58v-8.96c0-1.24-1-2.24-2.24-2.24h-5l8.36-4.77c.88-.5,1.31-1.54,1.05-2.52-.26-.98-1.15-1.66-2.16-1.66H14.99Z"/><path class="cls-1" d="m6.72,0C2.63,0-.51,3.62.07,7.67l3.51,24.6c.23,1.59,1.02,3.05,2.23,4.11l13.72,12c2.53,2.22,6.32,2.22,8.85,0l13.72-12c1.21-1.06,2-2.52,2.23-4.11l3.51-24.6c.58-4.05-2.56-7.67-6.65-7.67H6.72Zm-2.22,7.04c-.19-1.35.85-2.56,2.22-2.56h34.47c1.36,0,2.41,1.21,2.22,2.56l-3.51,24.6c-.08.53-.34,1.02-.74,1.37l-13.72,12c-.84.74-2.11.74-2.95,0l-13.72-12c-.4-.35-.67-.84-.74-1.37L4.5,7.04Z"/></g></svg>