<?xml version="1.0" encoding="UTF-8"?><svg id="Capa_2" xmlns="http://www.w3.org/2000/svg" viewBox="0 0 54.57 50.04"><defs><style>.cls-1{fill:#564c45;}</style></defs><g id="Capa_1-2"><path class="cls-1" d="m5.35,25.01c.75.68,1.24,1.27,1.49,1.75.33.64.5,1.38.5,2.21,0,.55-.08,1.2-.23,1.95l-2.51,11.86c-.09.37-.13.76-.13,1.16,0,.92.28,1.69.84,2.3.56.61,1.27.94,2.13,1.01.64.04,1.03.14,1.19.3.22.2.33.46.33.79,0,.46-.18.86-.55,1.21-.36.34-.83.51-1.4.51-1.56,0-2.86-.52-3.88-1.55-1.02-1.04-1.54-2.39-1.54-4.06,0-.51.07-1.05.2-1.62l2.51-11.89c.09-.35.13-.72.13-1.09,0-.95-.28-1.72-.84-2.33-.56-.61-1.29-.94-2.2-1.01-.55-.04-.9-.15-1.06-.33-.22-.2-.33-.46-.33-.79,0-.48.16-.89.48-1.22.32-.33.83-.53,1.54-.59,1.17-.11,2.2-.58,3.09-1.4s1.46-1.83,1.7-3.02l2.54-11.89c.44-2.09,1.47-3.82,3.09-5.19,1.62-1.37,3.35-2.05,5.2-2.05.46,0,.8.1,1.02.31.22.21.33.48.33.81,0,.42-.16.78-.48,1.09-.32.31-.86.51-1.64.59-1.15.11-2.16.58-3.04,1.4-.88.83-1.45,1.83-1.72,3.02l-2.51,11.89c-.29,1.37-.74,2.48-1.35,3.34-.62.86-1.59,1.71-2.91,2.54Z"/><path class="cls-1" d="m49.22,25.01c-.77-.66-1.28-1.23-1.52-1.72-.31-.66-.46-1.4-.46-2.21,0-.57.08-1.22.23-1.95l2.51-11.89c.09-.37.13-.75.13-1.12,0-.92-.28-1.69-.84-2.3-.56-.61-1.27-.94-2.13-1.01-.64-.07-1.04-.17-1.19-.3-.22-.22-.33-.48-.33-.79,0-.46.18-.86.55-1.21.36-.34.84-.51,1.44-.51,1.54,0,2.82.52,3.83,1.55,1.01,1.04,1.52,2.4,1.52,4.1,0,.48-.06,1.01-.17,1.59l-2.54,11.89c-.07.35-.1.71-.1,1.06,0,.95.28,1.73.84,2.35.56.62,1.29.96,2.2,1.02.55.04.9.14,1.06.3.22.22.33.48.33.79,0,.51-.16.92-.48,1.26-.32.33-.83.53-1.54.59-1.17.09-2.2.55-3.09,1.37-.89.83-1.47,1.84-1.73,3.06l-2.51,11.89c-.44,2.09-1.47,3.82-3.09,5.19-1.62,1.37-3.35,2.05-5.2,2.05-.46,0-.8-.1-1.02-.31-.22-.21-.33-.48-.33-.81,0-.44.15-.81.46-1.11.31-.3.86-.49,1.65-.58,1.14-.11,2.16-.58,3.04-1.42.88-.84,1.45-1.85,1.72-3.04l2.51-11.86c.29-1.37.74-2.48,1.35-3.34.62-.86,1.59-1.72,2.91-2.58Z"/></g></svg>