<?xml version="1.0" encoding="UTF-8"?><svg id="Capa_2" xmlns="http://www.w3.org/2000/svg" viewBox="0 0 39.91 50.04"><defs><style>.cls-1{fill:#564c45;}</style></defs><g id="Capa_1-2"><path class="cls-1" d="m4.37,1.87c1.15-.34,2.28-.76,3.45-1.01,5.49-1.16,11-1.24,16.42.33,5.97,1.72,10.49,5.26,13.14,11.02,2.18,4.74,2.67,9.75,2.49,14.87-.14,3.79-.66,7.51-2,11.08-2.47,6.57-7.03,10.71-14.09,11.71-2.04.29-4.14.11-6.21.14-.13,0-.27-.08-.66-.2.65-.28,1.09-.47,1.52-.66,3.92-1.78,6.23-4.98,7.52-8.93.77-2.36,1.45-4.79,1.77-7.24.61-4.68,1.07-9.41.42-14.13-1.02-7.44-5.37-12.21-12.31-14.74-3.29-1.2-6.69-1.82-10.2-1.86-.4,0-.8-.08-1.21-.12-.02-.09-.03-.18-.05-.27Z"/><path class="cls-1" d="m21.09,9.32c-3.96-.93-7.08,1.38-8.23,4.29-.26.65-.4,1.38-.4,2.08-.04,3.48-.02,6.96-.02,10.44,0,4.26,0,8.51.02,12.77,0,.69-.23.97-.91.99-1.64.03-3.27.07-4.9.14-1.04.04-2.08.1-3.11.24-.67.09-.84-.15-.83-.76.02-1.73,0-3.45,0-5.18,0-9.67,0-19.34,0-29.02,0-1.29.02-1.29,1.3-1.24,6.01.23,11.59,1.86,16.71,5.02.12.07.24.16.36.24Z"/><path class="cls-1" d="m23.8,37.5c-.67,4.42-4.11,10.26-9.62,11.31-2.85.54-5.61.27-8.26-.98-1.69-.8-3.4-1.59-5.33-1.62-.64,0-.63-.41-.56-.85.28-1.76,1.32-2.89,3.09-3.24.84-.17,1.7-.23,2.56-.28,3.11-.2,6.23-.29,9.33-.59,1.86-.18,3.65-.79,5.29-1.76,1.14-.67,2.29-1.31,3.5-1.99Z"/></g></svg>