<?xml version="1.0" encoding="UTF-8"?><svg id="Capa_2" xmlns="http://www.w3.org/2000/svg" viewBox="0 0 50.04 50.04"><defs><style>.cls-1{fill:#564c45;}</style></defs><g id="Capa_1-2"><path class="cls-1" d="m6.26,50.04c-1.67.06-3.29-.59-4.47-1.79C.61,47.09-.04,45.48,0,43.82V6.26c-.06-1.67.59-3.29,1.79-4.47C2.96.6,4.58-.05,6.26,0h37.53c1.67-.06,3.29.59,4.47,1.79,1.19,1.17,1.84,2.79,1.79,4.47v37.53c-.02,3.45-2.82,6.24-6.27,6.25H6.26Zm17.87-30.38l-5.02-8.69-11.08,19.12,5.02,8.58,11.08-19.01Zm17.76,11.53h-21.82c-.13,0-1.85,2.85-5.16,8.54h22.03l4.95-8.54Zm-11.26-21.19h-9.6l10.95,18.89.3.18h9.6c-7.33-12.72-11.08-19.08-11.26-19.07Z"/></g></svg>