<?xml version="1.0" encoding="UTF-8"?><svg id="Capa_2" xmlns="http://www.w3.org/2000/svg" viewBox="0 0 34.53 50.04"><defs><style>.cls-1{fill:#564c45;}</style></defs><g id="Capa_1-2"><path class="cls-1" d="m30.49,17.26c2.44-1.72,4.03-4.55,4.03-7.76,0-5.24-4.26-9.5-9.5-9.5h-15.52C4.26,0,0,4.26,0,9.5c0,3.2,1.6,6.04,4.03,7.76-2.44,1.72-4.03,4.55-4.03,7.76s1.6,6.04,4.03,7.76c-2.44,1.72-4.03,4.56-4.03,7.76,0,5.24,4.26,9.5,9.5,9.5s9.5-4.26,9.5-9.5v-8.16c1.64,1.34,3.73,2.15,6.01,2.15,5.24,0,9.5-4.26,9.5-9.5,0-3.2-1.6-6.04-4.03-7.76Zm-5.47-13.77c3.32,0,6.01,2.7,6.01,6.01s-2.7,6.01-6.01,6.01h-6.01V3.49h6.01ZM3.49,9.5c0-3.32,2.7-6.01,6.01-6.01h6.01v12.03h-6.01c-3.32,0-6.01-2.7-6.01-6.01Zm6.01,9.5h6.01v5.99s0,.01,0,.02,0,.01,0,.02v5.99h-6.01c-3.32,0-6.01-2.7-6.01-6.01s2.7-6.01,6.01-6.01Zm6.01,21.53c0,3.32-2.7,6.01-6.01,6.01s-6.01-2.7-6.01-6.01,2.7-6.01,6.01-6.01h6.01v6.01Zm9.5-9.5c-3.31,0-6.01-2.69-6.01-6v-.02c0-3.31,2.7-6,6.01-6s6.01,2.7,6.01,6.01-2.7,6.01-6.01,6.01Z"/></g></svg>