<?xml version="1.0" encoding="UTF-8"?><svg id="Capa_2" xmlns="http://www.w3.org/2000/svg" viewBox="0 0 50.05 50.04"><defs><style>.cls-1{fill:#564c45;}</style></defs><g id="Capa_1-2"><path class="cls-1" d="m50.05,3.88V1.68c-.45,0-.88-.18-1.19-.49-.31-.31-.49-.74-.49-1.19h-2.21c-.05.93-.84,1.64-1.76,1.6-.86-.04-1.56-.73-1.6-1.6h-2.21c-.06.93-.85,1.64-1.78,1.58-.85-.06-1.52-.73-1.57-1.58h-2.21c-.05.93-.84,1.64-1.77,1.6-.86-.04-1.55-.73-1.6-1.6h-2.21c-.05.93-.83,1.64-1.76,1.6-.86-.04-1.55-.73-1.6-1.6h-2.21c-.06.93-.85,1.64-1.78,1.58-.85-.06-1.52-.73-1.58-1.58h-2.21c-.03.93-.8,1.65-1.72,1.62-.88-.03-1.59-.74-1.62-1.62h-2.21c-.05.93-.84,1.64-1.77,1.6-.86-.04-1.55-.73-1.59-1.6h-2.21c-.04.93-.81,1.65-1.73,1.62-.88-.03-1.59-.74-1.62-1.62H1.68c0,.45-.18.88-.49,1.19-.32.31-.74.49-1.19.49v2.21c.93.04,1.64.81,1.61,1.73-.03.88-.73,1.59-1.61,1.62v2.21c.93.03,1.64.81,1.61,1.73-.03.88-.73,1.59-1.61,1.62v2.21c.93,0,1.68.75,1.68,1.68s-.75,1.68-1.68,1.68v2.21c.93,0,1.68.75,1.68,1.67s-.75,1.68-1.68,1.68v2.21c.93.03,1.64.81,1.61,1.73-.03.88-.73,1.58-1.61,1.61v2.21c.93,0,1.68.75,1.68,1.67s-.75,1.68-1.68,1.68v2.21c.93.03,1.64.81,1.61,1.73-.03.88-.73,1.6-1.61,1.62v2.21c.93,0,1.68.75,1.68,1.69s-.75,1.67-1.68,1.67v2.21c.92,0,1.68.75,1.68,1.67h2.21c.06-.92.86-1.63,1.78-1.57.85.06,1.51.73,1.57,1.57h2.21c.05-.92.84-1.64,1.76-1.59.86.04,1.56.73,1.6,1.59h2.21c.05-.92.84-1.64,1.76-1.59.86.04,1.56.73,1.6,1.59h2.21c.04-.92.81-1.64,1.73-1.61.88.03,1.59.74,1.62,1.61h2.21c.05-.92.84-1.64,1.77-1.59.86.04,1.55.73,1.59,1.59h2.21c.05-.92.84-1.64,1.77-1.59.86.04,1.55.73,1.59,1.59h2.21c.05-.92.84-1.64,1.77-1.59.86.04,1.55.73,1.59,1.59h2.21c.03-.92.81-1.64,1.73-1.61.88.03,1.59.74,1.61,1.61h2.2c0-.44.18-.87.49-1.18.31-.31.74-.49,1.19-.49v-2.21c-.93-.06-1.63-.85-1.58-1.78.06-.85.73-1.52,1.58-1.57v-2.21c-.93-.05-1.64-.84-1.6-1.76.04-.86.73-1.56,1.6-1.6v-2.21c-.93-.06-1.63-.86-1.58-1.78.06-.85.73-1.52,1.58-1.57v-2.21c-.93-.04-1.64-.83-1.6-1.76.04-.86.73-1.55,1.6-1.6v-2.2c-.93-.06-1.63-.86-1.58-1.78.06-.85.73-1.52,1.58-1.57v-2.21c-.93-.05-1.64-.84-1.6-1.76.04-.86.73-1.56,1.6-1.6v-2.21c-.93-.06-1.63-.86-1.58-1.78.06-.84.73-1.51,1.58-1.57v-2.21c-.93-.05-1.64-.84-1.6-1.76.04-.86.73-1.55,1.6-1.6h0Zm-8.48,20.51l-13.35,12.98c1.21.19,2.38.46,3.63.46,3.05,0,6.56-.93,8.94-1.91l-1.21,5.72c-3.49,1.68-5.64,1.82-7.72,1.82-2.29,0-4.47-.75-6.7-.75-1.26,0-3.08.1-4.19.84l-2.42-4.28,13.77-13.63h-15.85l-3.02,14.18h-6.61L13.71,7.36h21.87l-1.4,6.56h-15.21l-1.3,6.1h24.97l-1.07,4.38Z"/></g></svg>