<?xml version="1.0" encoding="UTF-8"?><svg id="Capa_2" xmlns="http://www.w3.org/2000/svg" viewBox="0 0 50.04 50.04"><defs><style>.cls-1{fill:#564c45;}</style></defs><g id="Capa_1-2"><path class="cls-1" d="m49.09,22.79L27.24.94c-.58-.58-1.39-.94-2.28-.94s-1.7.36-2.28.94h0l-4.53,4.54,5.75,5.75c.37-.13.79-.2,1.23-.2,2.12,0,3.83,1.72,3.83,3.83,0,.45-.08.88-.22,1.28v-.03s5.55,5.55,5.55,5.55c.37-.13.8-.21,1.24-.21,2.12,0,3.83,1.72,3.83,3.83s-1.72,3.83-3.83,3.83-3.83-1.72-3.83-3.83c0-.52.11-1.02.29-1.47v.03s-5.2-5.16-5.2-5.16v13.61c1.27.64,2.13,1.94,2.13,3.44,0,2.12-1.72,3.84-3.84,3.84s-3.84-1.72-3.84-3.84c0-1.06.43-2.01,1.12-2.71h0c.35-.35.77-.64,1.24-.84h.03v-13.75c-1.4-.59-2.37-1.96-2.37-3.55,0-.53.11-1.04.31-1.5v.03s-5.66-5.68-5.66-5.68L.94,22.69c-.58.59-.94,1.39-.94,2.28s.36,1.7.94,2.28l21.85,21.85c.58.58,1.39.94,2.28.94s1.7-.36,2.28-.94l21.75-21.75c.58-.58.95-1.39.95-2.28s-.36-1.7-.95-2.28h0Z"/></g></svg>