<svg id="Capa_2" xmlns="http://www.w3.org/2000/svg" viewBox="0 0 50.04 50.04"><defs><style>.cls-1{fill:#564c45;}</style></defs><g id="Capa_1-2"><g id="_2069a460dcf28295e231f3111e03585e"><path class="cls-1" d="m22.24,21.3l1.88,5.88h-6.13l1.84-5.88c.43-1.42.78-3.08,1.13-4.47h.07c.35,1.38.74,3.01,1.21,4.47Zm27.8-12.96v33.36c0,4.59-3.75,8.34-8.34,8.34H8.34c-4.59,0-8.34-3.75-8.34-8.34V8.34C0,3.75,3.75,0,8.34,0h33.36c4.59,0,8.34,3.75,8.34,8.34Zm-18.34,28.91l-7.76-23.89h-5.57l-7.66,23.89h4.5l2.06-6.77h7.59l2.16,6.77h4.68Zm7.37-17.26h-4.4v17.26h4.4v-17.26Zm.25-4.82c-.04-1.35-.96-2.38-2.45-2.38s-2.45,1.03-2.45,2.38.96,2.34,2.41,2.34c1.52,0,2.48-1.03,2.48-2.34Z"/></g></g></svg>