<?xml version="1.0" encoding="UTF-8"?><svg id="Capa_2" xmlns="http://www.w3.org/2000/svg" viewBox="0 0 50.04 50.04"><defs><style>.cls-1{fill:#564c45;}</style></defs><g id="Capa_1-2"><path class="cls-1" d="m42.54,0H7.51C3.36,0,0,3.36,0,7.51v35.03c0,4.15,3.36,7.51,7.51,7.51h35.03c4.15,0,7.51-3.36,7.51-7.51V7.51c0-4.15-3.36-7.51-7.51-7.51Zm-17.22,35.87c0,4.89-2.83,7.04-7.04,7.04-3.81,0-5.96-1.95-7.04-4.3l3.81-2.05c.78,1.27,1.37,2.44,3.03,2.44,1.56,0,2.54-.59,2.54-2.93v-16.23h4.69v16.03Zm11.04,7.33c-4.4,0-7.23-2.05-8.6-4.79l3.91-2.25c.98,1.66,2.35,2.83,4.59,2.83,1.95,0,3.23-.98,3.23-2.35,0-1.56-1.27-2.15-3.42-3.13l-1.17-.49c-3.42-1.47-5.67-3.23-5.67-7.04,0-3.52,2.64-6.26,6.84-6.26,3.03,0,5.18,1.08,6.65,3.81l-3.62,2.35c-.78-1.47-1.66-2.05-3.03-2.05s-2.25.88-2.25,2.05c0,1.37.88,1.95,2.93,2.83l1.17.49c4.01,1.76,6.26,3.42,6.26,7.43s-3.32,6.55-7.82,6.55Z"/></g></svg>