<?xml version="1.0" encoding="UTF-8"?><svg id="Capa_2" xmlns="http://www.w3.org/2000/svg" viewBox="0 0 48.61 50.04"><defs><style>.cls-1{fill:#564c45;}</style></defs><g id="Capa_1-2"><path class="cls-1" d="m14.96,26.42c-.1,1.22-.89,1.99-2.25,2.1-.67.05-1.35.06-2.02-.17-.94-.33-1.33-.98-1.46-1.87-.04-.27-.02-.54-.02-.81,0-7.41.04-14.83-.03-22.24-.02-2.49,1.32-3.09,3.05-3.36.94-.15,1.9-.04,2.82.22,1.16.33,1.91,1.12,2.3,2.24,1.84,5.23,3.66,10.46,5.5,15.69.35,1.01.71,2.01,1.13,3.18.62-1.8,1.18-3.43,1.73-5.06,1.53-4.55,3.07-9.09,4.59-13.64.57-1.72,1.89-2.42,3.55-2.63.97-.12,1.95-.05,2.89.22,1.36.4,1.97,1.25,1.97,2.66,0,7.66,0,15.33,0,22.99,0,1.56-.83,2.5-2.35,2.64-.55.05-1.06.01-1.58-.05-.95-.12-1.6-.81-1.82-1.86,0-5.26,0-10.51,0-15.77,0-.14,0-.3-.07-.41-.05-.09-.14,0-.16.09-1.48,4.1-2.96,8.21-4.44,12.31-.41,1.14-.82,2.29-1.22,3.43-.57,1.62-2.36,2.07-3.69,1.94-1.83-.17-2.6-1.44-3.17-2.97-1.5-4.03-3.02-8.05-4.53-12.08-.17-.46-.32-.93-.48-1.39,0-.02,0-.04-.02-.06-.01-.02-.03-.04-.04-.04-.3.05-.16.29-.17.44,0,4.76,0,9.52,0,14.28Z"/><path class="cls-1" d="m40.2,38.26c1.45-.15,2.75-.66,3.86-1.62.6-.52,1.39-.5,2.01-.31,1.1.34,2.04,1.03,2.42,2.2.27.87.11,1.71-.58,2.34-1.72,1.56-3.74,2.53-6.04,2.93-.43.07-.86.09-1.29.13-2.54,0-5.07-.01-7.61-.01-.14,0-.28.06-.42.1-2.4.15-4.62,1.78-5.34,4.16-.33,1.08-.95,1.64-2.01,1.8-.97.15-1.93.16-2.82-.34-.42-.24-.68-.58-.8-1.04-.66-2.53-2.87-4.37-5.49-4.57-.12-.03-.24-.1-.35-.09-2.52,0-5.03.01-7.55.02-2.82-.08-5.24-1.15-7.35-2.97-1.21-1.04-1.1-2.75.18-3.72.68-.52,1.29-1.1,2.26-.98.51.06.97.16,1.36.49,1.3,1.11,2.79,1.58,4.5,1.53,1.94-.05,3.87,0,5.81-.01,2.47,0,4.8.51,6.92,1.83.74.46,1.43,1,2,1.67.28.32.46.3.75,0,1.69-1.77,3.77-2.84,6.17-3.31.5-.1,1.02-.14,1.53-.21,2.62,0,5.25,0,7.87,0Z"/></g></svg>