<?xml version="1.0" encoding="UTF-8"?><svg id="Capa_2" xmlns="http://www.w3.org/2000/svg" viewBox="0 0 69.68 50.04"><defs><style>.cls-1{fill:#564c45;}</style></defs><g id="Capa_1-2"><path class="cls-1" d="m22.75,49.98v-29.76h-8.12v29.6H0V5.12h37.17v14.58c.15.05.31.1.46.15.55-1.14,1.1-2.29,1.65-3.43,2.22-4.64,4.76-9.15,8.94-12.22,2.42-1.78,5.36-3.23,8.27-3.88,5.77-1.27,9.63,1.32,11.54,6.96,2.2,6.48,1.72,13.17,1.24,19.79-.5,6.8-1.63,13.55-2.33,20.33-.2,1.95-.79,2.67-2.84,2.62-6.1-.13-12.21-.05-18.63-.05,2.18-5.21,4.37-9.97,6.16-14.87,1.6-4.36,2.78-8.88,4.08-13.35.24-.81.28-1.72.19-2.57-.22-2.21-1.91-3.12-3.62-1.67-1.6,1.36-3.28,3.06-4.01,4.96-3.14,8.2-6.03,16.49-8.79,24.83-.64,1.93-1.21,2.84-3.43,2.73-4.3-.21-8.62-.06-13.31-.06Z"/></g></svg>