<?xml version="1.0" encoding="UTF-8"?><svg id="Capa_2" xmlns="http://www.w3.org/2000/svg" viewBox="0 0 43.57 50.04"><defs><style>.cls-1{fill:#564c45;}</style></defs><g id="Capa_1-2"><path class="cls-1" d="m20.6.32c.73-.43,1.63-.43,2.36,0l19.44,11.34c.72.42,1.16,1.19,1.16,2.03v22.68c0,.83-.44,1.61-1.16,2.03l-19.44,11.34c-.73.43-1.63.43-2.36,0l-4.86-2.83c-1.12-.65-1.5-2.09-.84-3.21.65-1.12,2.09-1.5,3.21-.84l3.68,2.15,17.09-9.97V15.03L21.78,5.06,4.69,15.03v19.98l3.49,2.04c1.08.35,2.41.43,3.34.02.43-.19.83-.5,1.14-1.06.33-.59.63-1.57.63-3.16v-16.42c0-1.3,1.05-2.35,2.35-2.35s2.35,1.05,2.35,2.35v16.42c0,2.16-.4,3.98-1.22,5.44-.83,1.49-2.02,2.49-3.34,3.07-2.52,1.11-5.31.66-7.01.04-.13-.05-.27-.11-.39-.18l-4.86-2.83c-.72-.42-1.16-1.19-1.16-2.03V13.68c0-.83.44-1.61,1.16-2.03L20.6.32Zm2.06,16.21c1.24-1.48,3.18-2.45,5.81-2.45,2.44,0,4.3.84,5.56,2.17.89.94.85,2.43-.09,3.32-.94.89-2.43.85-3.32-.09-.27-.29-.85-.7-2.15-.7-1.38,0-1.95.46-2.22.78-.34.41-.45.92-.45,1.18s.11.77.45,1.18c.26.31.83.78,2.22.78.23,0,.46.03.67.1,1.94.28,3.41,1.15,4.43,2.35,1.16,1.39,1.55,3.02,1.55,4.2s-.39,2.81-1.55,4.2c-1.24,1.48-3.18,2.45-5.81,2.45-2.44,0-4.3-.84-5.56-2.17-.89-.94-.85-2.43.09-3.32.94-.89,2.43-.85,3.32.09.27.29.85.7,2.15.7,1.38,0,1.95-.46,2.22-.78.34-.41.45-.92.45-1.18s-.11-.77-.45-1.18c-.26-.31-.83-.78-2.22-.78-.23,0-.46-.03-.67-.1-1.94-.28-3.41-1.15-4.43-2.35-1.16-1.39-1.55-3.02-1.55-4.2s.39-2.81,1.55-4.2Z"/></g></svg>