<svg id="Capa_2" xmlns="http://www.w3.org/2000/svg" viewBox="0 0 50.04 50.04"><defs><style>.cls-1{fill:#564c45;}</style></defs><g id="Capa_1-2"><g id="_2069a460dcf28295e231f3111e037552"><path class="cls-1" d="m41.7,0H8.34C3.75,0,0,3.75,0,8.34v33.36c0,4.59,3.75,8.34,8.34,8.34h33.36c4.59,0,8.34-3.75,8.34-8.34V8.34c0-4.59-3.75-8.34-8.34-8.34Zm-17.73,25.47c-1.74,1.74-4.47,2.55-7.55,2.55-.82,0-1.56-.04-2.13-.14v9h-4.32V13.31c1.56-.28,3.72-.5,6.66-.5,3.19,0,5.53.67,7.06,1.95,1.42,1.17,2.34,3.05,2.34,5.28,0,2.27-.71,4.15-2.06,5.42Zm9.07,11.77c-2.09,0-3.97-.5-5.25-1.21l.85-3.16c.99.6,2.87,1.24,4.43,1.24,1.91,0,2.77-.78,2.77-1.91s-.71-1.77-2.84-2.52c-3.37-1.17-4.79-3.01-4.75-5.03,0-3.05,2.52-5.42,6.52-5.42,1.91,0,3.58.5,4.57,1.03l-.85,3.08c-.74-.43-2.13-.99-3.65-.99s-2.41.74-2.41,1.81.82,1.63,3.01,2.41c3.12,1.13,4.57,2.73,4.61,5.28,0,3.12-2.45,5.39-7.02,5.39Zm-11.38-17.02c0,2.8-1.99,4.4-5.25,4.4-.89,0-1.6-.04-2.13-.18v-8.08c.46-.11,1.31-.21,2.52-.21,3.01,0,4.86,1.42,4.86,4.08Z"/></g></g></svg>