<?xml version="1.0" encoding="UTF-8"?><svg id="Capa_2" xmlns="http://www.w3.org/2000/svg" viewBox="0 0 50.04 50.04"><defs><style>.cls-1{fill:#564c45;}</style></defs><g id="Capa_1-2"><path class="cls-1" d="m14.85,21.86c-.77-.25-1.73-.37-2.89-.35-.17.02-.34.02-.5.02h-.44l-1.3,7.06c.09.02.17.02.26.02h.3c1.39.02,2.55-.13,3.48-.45.93-.33,1.55-1.48,1.87-3.45.26-1.65,0-2.61-.78-2.86Z"/><path class="cls-1" d="m40.64,21.86c-.77-.25-1.73-.37-2.89-.35-.17.02-.34.02-.5.02h-.44l-1.3,7.06c.09.02.17.02.26.02h.3c1.39.02,2.55-.13,3.48-.45.93-.33,1.55-1.48,1.87-3.45.26-1.65,0-2.61-.78-2.86Z"/><path class="cls-1" d="m25.02,0C11.2,0,0,11.2,0,25.02s11.2,25.02,25.02,25.02,25.02-11.2,25.02-25.02S38.84,0,25.02,0Zm-6.23,24.74c-.1.83-.33,1.65-.67,2.46-.33.8-.8,1.53-1.39,2.17-.73.82-1.5,1.34-2.33,1.56-.83.22-1.68.33-2.57.33h-2.61l-.83,4.49h-3.02l3.11-16.94h5.83c1.71.02,2.95.55,3.72,1.61.77,1.06,1.02,2.5.76,4.32Zm10.8,6.52h-3.05l1.39-7.51c.14-.79.1-1.35-.13-1.68-.23-.33-.73-.5-1.5-.5l-2.42-.02-1.78,9.71h-3l3.13-16.96h3l-.85,4.51h2.7c1.48.03,2.58.36,3.31.99.74.63.96,1.83.65,3.59l-1.46,7.87Zm14.32-4.06c-.33.8-.8,1.53-1.39,2.17-.73.82-1.5,1.34-2.33,1.56-.83.22-1.68.33-2.57.33h-2.61l-.83,4.49h-3.02l3.11-16.94h5.83c1.71.02,2.95.55,3.72,1.61.77,1.06,1.02,2.5.76,4.32-.1.83-.33,1.65-.67,2.46Z"/></g></svg>