<?xml version="1.0" encoding="UTF-8"?><svg id="Capa_2" xmlns="http://www.w3.org/2000/svg" viewBox="0 0 41.49 50.04"><defs><style>.cls-1{fill:#564c45;}</style></defs><g id="Capa_1-2"><path class="cls-1" d="m14.59,33v17.04H4.26V9.7c-1.54-.12-2.79-.21-4.24-.32C.01,6.83-.04,4.36.07,1.91c.02-.4.72-1.1,1.12-1.11,2.61-.1,5.22-.17,7.82,0,2.47.17,3.95,1.78,4.59,3.85,2.29-1.33,4.41-3.06,6.83-3.86,9.75-3.22,19.9,3.78,20.89,14.09.36,3.69.19,7.27-1,10.77-3.74,10.95-17.45,14.28-25.73,7.35Zm-.22-14.72c.12,1.05.17,1.97.34,2.86.76,3.97,3.74,6.74,7.37,6.92,3.68.18,6.99-2.19,8.24-5.94.92-2.76.78-5.51-.3-8.18-1.38-3.37-4.32-5.23-7.79-5.06-3.78.19-6.26,2.14-7.3,5.88-.33,1.18-.39,2.43-.55,3.51Z"/></g></svg>