<?xml version="1.0" encoding="UTF-8"?><svg id="Capa_2" xmlns="http://www.w3.org/2000/svg" viewBox="0 0 36.28 50.04"><defs><style>.cls-1{fill:#564c45;fill-rule:evenodd;}</style></defs><g id="Capa_1-2"><path class="cls-1" d="m7.51,22.83v15.01c0,1.04.84,1.88,1.88,1.88h17.52c1.04,0,1.88-.84,1.88-1.88v-15.01c0-1.04-.84-1.88-1.88-1.88H9.38c-1.04,0-1.88.84-1.88,1.88Zm12.51,1.88h5v3.75h-5v-3.75Zm0,7.51h5v3.75h-5v-3.75Zm-8.76-7.51h5v3.75h-5v-3.75Zm0,7.51h5v3.75h-5v-3.75Z"/><path class="cls-1" d="m35.73,11.18L25.1.55c-.35-.35-.83-.55-1.33-.55H4.38C1.96,0,0,1.96,0,4.38v41.29c0,2.42,1.96,4.38,4.38,4.38h27.52c2.42,0,4.38-1.96,4.38-4.38V12.51c0-.5-.2-.98-.55-1.33Zm-10.08-4.78l4.23,4.23h-4.23v-4.23Zm6.88,39.26c0,.35-.28.63-.63.63H4.38c-.35,0-.63-.28-.63-.63V4.38c0-.35.28-.63.63-.63h17.52v8.76c0,1.04.84,1.88,1.88,1.88h8.76v31.28Z"/></g></svg>