<?xml version="1.0" encoding="UTF-8"?><svg id="Capa_2" xmlns="http://www.w3.org/2000/svg" viewBox="0 0 35.61 50.04"><defs><style>.cls-1{fill:#564c45;}</style></defs><g id="Capa_1-2"><path class="cls-1" d="m4.51,23.69c4.27,1.5,8.77,2.22,13.29,2.13,4.52.09,9.03-.63,13.29-2.13,3.33-1.3,4.51-2.74,4.51-3.57v-6.35c-1.16.78-2.41,1.43-3.72,1.92-4.52,1.62-9.29,2.41-14.08,2.33-4.8.08-9.57-.71-14.08-2.32C2.41,15.19,1.16,14.54,0,13.76v6.34C0,20.95,1.18,22.39,4.51,23.69Z"/><path class="cls-1" d="m4.51,35.68c1.51.58,3.06,1.02,4.65,1.32,2.85.55,5.75.82,8.65.81,2.9.01,5.8-.26,8.65-.81,1.58-.31,3.14-.75,4.65-1.32,3.33-1.3,4.51-2.74,4.51-3.57v-6.06c-.96.58-1.97,1.07-3.02,1.47-4.74,1.68-9.75,2.49-14.78,2.4-5.03.09-10.04-.73-14.78-2.41C1.98,27.11.96,26.61,0,26.04v6.06C0,32.93,1.18,34.37,4.51,35.68Z"/><path class="cls-1" d="m17.81,50.04c9.83,0,17.81-3.12,17.81-6.96v-5.07c-.88.53-1.79.98-2.74,1.36l-.28.11c-4.74,1.68-9.75,2.5-14.78,2.41-5.03.09-10.04-.73-14.78-2.41-.1-.04-.19-.08-.28-.11C1.79,39,.88,38.54,0,38.01v5.07C0,46.93,7.98,50.04,17.81,50.04Z"/><ellipse class="cls-1" cx="17.81" cy="6.96" rx="17.81" ry="6.96"/></g></svg>