<?xml version="1.0" encoding="UTF-8"?><svg id="Capa_2" xmlns="http://www.w3.org/2000/svg" viewBox="0 0 83.41 50.04"><defs><style>.cls-1{fill:#564c45;}</style></defs><g id="Capa_1-2"><path class="cls-1" d="m20.85,16.68C23.63,5.56,30.58,0,41.7,0c16.68,0,18.77,12.51,27.11,14.6,5.56,1.39,10.43-.7,14.6-6.26-2.78,11.12-9.73,16.68-20.85,16.68-16.68,0-18.77-12.51-27.11-14.6-5.56-1.39-10.43.7-14.6,6.26ZM0,41.7c2.78-11.12,9.73-16.68,20.85-16.68,16.68,0,18.77,12.51,27.11,14.6,5.56,1.39,10.43-.7,14.6-6.26-2.78,11.12-9.73,16.68-20.85,16.68-16.68,0-18.77-12.51-27.11-14.6-5.56-1.39-10.43.7-14.6,6.26Z"/></g></svg>