<?xml version="1.0" encoding="UTF-8"?><svg id="Capa_2" xmlns="http://www.w3.org/2000/svg" viewBox="0 0 50.34 50.04"><defs><style>.cls-1{fill:#564c45;fill-rule:evenodd;}</style></defs><g id="Capa_1-2"><path class="cls-1" d="m48.56,5.29L38.19.31c-.38-.19-.8-.29-1.23-.3h-.11s-.09,0-.09,0c-.81.01-1.59.34-2.17.92L14.77,19l-8.64-6.55c-.8-.61-1.93-.56-2.68.12l-2.77,2.52c-.43.39-.68.95-.68,1.54h0c0,.58.23,1.15.68,1.56l7.49,6.83L.68,31.86c-.86.78-.92,2.11-.13,2.97.04.05.09.09.14.14l2.77,2.52c.75.69,1.88.74,2.68.12l8.64-6.55,19.82,18.09c.52.52,1.2.83,1.92.9h.03s.09,0,.14.01c.06,0,.13,0,.19,0h.07c.43-.02.85-.12,1.25-.31l10.36-4.98c1.08-.52,1.78-1.62,1.78-2.83V8.13c0-1.21-.69-2.31-1.78-2.83Zm-10.82,31.13l-15.03-11.4,15.03-11.4v22.81Z"/></g></svg>