<?xml version="1.0" encoding="UTF-8"?><svg id="Capa_2" xmlns="http://www.w3.org/2000/svg" viewBox="0 0 84.07 50.04"><defs><style>.cls-1{fill:#564c45;fill-rule:evenodd;}</style></defs><g id="Capa_1-2"><path class="cls-1" d="m76.24,0H7.8C3.47,0-.03,3.54,0,7.84v26.12C0,38.29,3.51,41.8,7.84,41.8h32.41l14.81,8.25-3.37-8.25h24.54c4.33,0,7.84-3.51,7.84-7.84V7.84c0-4.33-3.51-7.84-7.84-7.84ZM6.36,6.05c-.96.07-1.68.41-2.17,1.07-.48.62-.65,1.41-.55,2.3,2.03,12.89,3.92,21.59,5.67,26.09.69,1.65,1.48,2.44,2.41,2.37,1.44-.1,3.16-2.1,5.19-5.98,1.07-2.2,2.72-5.5,4.95-9.9,1.86,6.5,4.4,11.38,7.6,14.64.89.93,1.82,1.34,2.72,1.27.79-.07,1.41-.48,1.82-1.24.34-.65.48-1.41.41-2.27-.21-3.13.1-7.49.96-13.1.89-5.77,1.99-9.93,3.33-12.41.27-.52.38-1.03.34-1.65-.07-.79-.41-1.44-1.07-1.96-.65-.52-1.37-.76-2.17-.69-1,.07-1.75.55-2.27,1.51-2.13,3.88-3.64,10.17-4.54,18.9-1.31-3.3-2.41-7.18-3.27-11.75-.38-2.03-1.31-2.99-2.82-2.89-1.03.07-1.89.76-2.58,2.06l-7.53,14.33c-1.24-4.98-2.41-11.07-3.47-18.25-.24-1.79-1.24-2.61-2.99-2.47Zm66.23,2.47c2.44.52,4.26,1.82,5.5,3.99,1.1,1.86,1.65,4.09,1.65,6.77,0,3.54-.89,6.77-2.68,9.73-2.06,3.44-4.74,5.16-8.08,5.16-.58,0-1.2-.07-1.86-.21-2.44-.52-4.26-1.82-5.5-3.99-1.1-1.89-1.65-4.16-1.65-6.81,0-3.54.89-6.77,2.68-9.69,2.1-3.44,4.78-5.16,8.08-5.16.58,0,1.2.07,1.86.21Zm-1.44,18.59c1.27-1.13,2.13-2.82,2.61-5.09.14-.79.24-1.65.24-2.54,0-1-.21-2.06-.62-3.13-.52-1.34-1.2-2.06-2.03-2.23-1.24-.24-2.44.45-3.57,2.13-.93,1.31-1.51,2.68-1.82,4.09-.17.79-.24,1.65-.24,2.51,0,1,.21,2.06.62,3.13.52,1.34,1.2,2.06,2.03,2.23.86.17,1.79-.21,2.78-1.1Zm-14.61-14.61c-1.24-2.17-3.09-3.47-5.5-3.99-.65-.14-1.27-.21-1.86-.21-3.3,0-5.98,1.72-8.08,5.16-1.79,2.92-2.68,6.15-2.68,9.69,0,2.65.55,4.92,1.65,6.81,1.24,2.17,3.06,3.47,5.5,3.99.65.14,1.27.21,1.86.21,3.33,0,6.01-1.72,8.08-5.16,1.79-2.96,2.68-6.19,2.68-9.73,0-2.68-.55-4.92-1.65-6.77Zm-4.33,9.52c-.48,2.27-1.34,3.95-2.61,5.09-1,.89-1.92,1.27-2.78,1.1-.82-.17-1.51-.89-2.03-2.23-.41-1.07-.62-2.13-.62-3.13,0-.86.07-1.72.24-2.51.31-1.41.89-2.78,1.82-4.09,1.13-1.68,2.34-2.37,3.57-2.13.82.17,1.51.89,2.03,2.23.41,1.07.62,2.13.62,3.13,0,.89-.07,1.75-.24,2.54Z"/></g></svg>