<?xml version="1.0" encoding="UTF-8"?><svg id="Capa_2" xmlns="http://www.w3.org/2000/svg" viewBox="0 0 50.04 50.04"><defs><style>.cls-1{fill:#564c45;}</style></defs><g id="Capa_1-2"><path class="cls-1" d="m25.02,0C11.22,0,0,11.22,0,25.02s11.22,25.02,25.02,25.02,25.02-11.23,25.02-25.02S38.82,0,25.02,0ZM2.53,25.02c0-3.26.7-6.36,1.95-9.16l10.73,29.4c-7.51-3.65-12.68-11.34-12.68-20.25Zm22.5,22.5c-2.21,0-4.34-.32-6.36-.92l6.75-19.61,6.91,18.94c.05.11.1.21.16.31-2.34.82-4.85,1.28-7.47,1.28Zm3.1-33.05c1.35-.07,2.57-.21,2.57-.21,1.21-.14,1.07-1.93-.14-1.85,0,0-3.64.29-6,.29-2.21,0-5.92-.29-5.92-.29-1.21-.07-1.36,1.78-.14,1.85,0,0,1.15.14,2.36.21l3.5,9.6-4.92,14.77L11.24,14.47c1.36-.07,2.57-.21,2.57-.21,1.21-.14,1.07-1.93-.14-1.85,0,0-3.64.29-6,.29-.42,0-.92-.01-1.45-.03C10.25,6.56,17.16,2.52,25.02,2.52c5.86,0,11.19,2.24,15.19,5.91-.1,0-.19-.02-.29-.02-2.21,0-3.78,1.92-3.78,3.99,0,1.85,1.07,3.42,2.21,5.28.86,1.5,1.85,3.42,1.85,6.2,0,1.93-.74,4.16-1.71,7.27l-2.24,7.5-8.13-24.18Zm8.21,29.99l6.87-19.87c1.28-3.21,1.71-5.78,1.71-8.06,0-.83-.05-1.6-.15-2.31,1.76,3.2,2.76,6.88,2.76,10.79,0,8.3-4.5,15.55-11.19,19.45Z"/></g></svg>