<?xml version="1.0" encoding="UTF-8"?><svg id="Capa_2" xmlns="http://www.w3.org/2000/svg" viewBox="0 0 42.02 50.04"><defs><style>.cls-1{fill:#564c45;}</style></defs><g id="Capa_1-2"><path class="cls-1" d="m19.38,0C10.55.02-.12,10.26,0,21.07c-.02,10.67,8.47,20.08,21.21,20.65,7.23.32,9.89-3.33,12.92-2.53,3.03.81,3.35,3.48,3.2,5.51-.01,2.32-1.9,4.2-4.22,4.19-.08,0-.16,0-.24,0-1.77-.89-.7-5.72-3.41-6-1.69.18-2.44,1.66-2.07,3.48s2.71,3.55,6.05,3.69c2.85.1,5.24-2.13,5.34-4.98,0-.13,0-.26,0-.4.25-3.09-1.95-5.85-5.02-6.28-3.42-.32-7.75,3.82-14.22,2.63-9.24-1.58-15.89-9.74-15.59-19.1.05-12.33,11.49-18.33,18.68-18.26,7.19.07,10.98,2.5,12.08,6.6,1.1,4.1-3.63,8.25-5.76,10.67s-3.26,4.05-2.81,6.88c.45,2.97,3.86,7.33,7.45,7.3,3.58-.02,8.79-4.03,8.43-13.76-.03-6.52-3.03-12.67-8.15-16.72C31.29,2.6,28.22-.02,19.38,0Z"/></g></svg>