<?xml version="1.0" encoding="UTF-8"?><svg id="Capa_2" xmlns="http://www.w3.org/2000/svg" viewBox="0 0 50.04 49.92"><defs><style>.cls-1{fill:#564c45;}</style></defs><g id="Capa_1-2"><path class="cls-1" d="m25.04,0c1.41,0,2.8.12,4.16.35h0v14.57l10.33-10.3c1.14.81,2.21,1.71,3.19,2.7.99.98,1.89,2.05,2.71,3.19h0l-10.33,10.3h14.61c.23,1.35.35,2.73.35,4.14h0v.03c0,1.41-.12,2.8-.35,4.14h-14.61l10.33,10.3c-.81,1.14-1.72,2.2-2.7,3.19h0c-.99.98-2.05,1.89-3.19,2.7h0l-10.33-10.3v14.57c-1.35.23-2.74.35-4.15.35h-.04c-1.41,0-2.8-.12-4.15-.35h0v-14.57l-10.33,10.3c-2.28-1.62-4.27-3.61-5.9-5.88h0l10.33-10.3H.35c-.23-1.35-.35-2.74-.35-4.15h0v-.07c0-.37.03-.81.06-1.28v-.14c.11-1.3.29-2.68.29-2.68h14.61L4.63,10.5c.81-1.14,1.71-2.2,2.7-3.18h0c.98-.99,2.05-1.89,3.19-2.7h0l10.33,10.3V.35c1.35-.23,2.74-.35,4.16-.35h.03Zm0,18.72h-.02c-1.86,0-3.64.34-5.28.96-.62,1.64-.96,3.41-.96,5.27v.02c0,1.85.34,3.63.96,5.27,1.64.62,3.42.96,5.28.96h.02c1.86,0,3.64-.34,5.28-.96.62-1.64.96-3.41.96-5.27v-.02c0-1.85-.34-3.63-.96-5.27-1.64-.62-3.42-.96-5.28-.96Z"/></g></svg>