<?xml version="1.0" encoding="UTF-8"?><svg id="Capa_2" xmlns="http://www.w3.org/2000/svg" viewBox="0 0 73.58 55.2"><defs><style>.cls-1{fill:#1d1d1b;fill-rule:evenodd;}</style></defs><g id="Capa_1-2"><path class="cls-1" d="m21.03,49.93c0-1.45,1.18-2.63,2.63-2.63h47.3c1.45,0,2.63,1.18,2.63,2.63s-1.18,2.63-2.63,2.63H23.65c-1.45,0-2.63-1.18-2.63-2.63Zm0-21.02c0-1.45,1.18-2.63,2.63-2.63h47.3c1.45,0,2.63,1.18,2.63,2.63s-1.18,2.63-2.63,2.63H23.65c-1.45,0-2.63-1.18-2.63-2.63Zm0-21.02c0-1.45,1.18-2.63,2.63-2.63h47.3c1.45,0,2.63,1.18,2.63,2.63s-1.18,2.63-2.63,2.63H23.65c-1.45,0-2.63-1.18-2.63-2.63ZM15,.77c1.03,1.02,1.03,2.69,0,3.72,0,0,0,0,0,0l-7.88,7.88c-1.02,1.03-2.69,1.03-3.72,0,0,0,0,0,0,0l-2.63-2.63c-1.03-1.03-1.03-2.69,0-3.72,1.03-1.03,2.69-1.03,3.72,0h0l.77.77L11.28.77c1.02-1.03,2.69-1.03,3.72,0,0,0,0,0,0,0h0Zm0,21.02c1.03,1.02,1.03,2.69,0,3.72,0,0,0,0,0,0l-7.88,7.88c-1.02,1.03-2.69,1.03-3.72,0,0,0,0,0,0,0l-2.63-2.63c-1.03-1.03-1.03-2.69,0-3.72,1.03-1.03,2.69-1.03,3.72,0l.77.77,6.02-6.03c1.02-1.03,2.69-1.03,3.72,0,0,0,0,0,0,0h0Zm0,21.02c1.03,1.02,1.03,2.69,0,3.72,0,0,0,0,0,0l-7.88,7.88c-1.02,1.03-2.69,1.03-3.72,0,0,0,0,0,0,0l-2.63-2.63c-1.03-1.03-1.03-2.69,0-3.72,1.03-1.03,2.69-1.03,3.72,0l.77.77,6.02-6.03c1.02-1.03,2.69-1.03,3.72,0,0,0,0,0,0,0h0Z"/></g></svg>