<?xml version="1.0" encoding="UTF-8"?><svg id="Capa_2" xmlns="http://www.w3.org/2000/svg" viewBox="0 0 48.34 48.34"><defs><style>.cls-1{fill:#564c45;}</style></defs><g id="Capa_1-2"><g><path class="cls-1" d="m6.04,18.13c-3.33,0-6.04,2.71-6.04,6.04s2.71,6.04,6.04,6.04,6.04-2.71,6.04-6.04-2.71-6.04-6.04-6.04Z"/><path class="cls-1" d="m6.04,0C2.71,0,0,2.71,0,6.04s2.71,6.04,6.04,6.04,6.04-2.71,6.04-6.04S9.37,0,6.04,0Z"/><path class="cls-1" d="m6.04,36.26c-3.33,0-6.04,2.71-6.04,6.04s2.71,6.04,6.04,6.04,6.04-2.71,6.04-6.04-2.71-6.04-6.04-6.04Z"/><path class="cls-1" d="m24.17,18.13c-3.33,0-6.04,2.71-6.04,6.04s2.71,6.04,6.04,6.04,6.04-2.71,6.04-6.04-2.71-6.04-6.04-6.04Z"/><path class="cls-1" d="m24.17,0c-3.33,0-6.04,2.71-6.04,6.04s2.71,6.04,6.04,6.04,6.04-2.71,6.04-6.04S27.5,0,24.17,0Z"/><path class="cls-1" d="m24.17,36.26c-3.33,0-6.04,2.71-6.04,6.04s2.71,6.04,6.04,6.04,6.04-2.71,6.04-6.04-2.71-6.04-6.04-6.04Z"/><path class="cls-1" d="m42.3,18.13c-3.33,0-6.04,2.71-6.04,6.04s2.71,6.04,6.04,6.04,6.04-2.71,6.04-6.04-2.71-6.04-6.04-6.04Z"/><path class="cls-1" d="m42.3,12.09c3.33,0,6.04-2.71,6.04-6.04s-2.71-6.04-6.04-6.04-6.04,2.71-6.04,6.04,2.71,6.04,6.04,6.04Z"/><path class="cls-1" d="m42.3,36.26c-3.33,0-6.04,2.71-6.04,6.04s2.71,6.04,6.04,6.04,6.04-2.71,6.04-6.04-2.71-6.04-6.04-6.04Z"/></g></g></svg>