<?xml version="1.0" encoding="UTF-8"?><svg id="Capa_2" xmlns="http://www.w3.org/2000/svg" viewBox="0 0 71.4 63.75"><defs><style>.cls-1{fill:#cec1b5;}</style></defs><g id="Capa_1-2"><g id="_-Product-Icons"><g id="ic_fluent_timeline_24_regular"><path id="_Color" class="cls-1" d="m24.46,28.33c-3.42,0-6.2-2.77-6.2-6.2V6.2c0-3.42,2.77-6.2,6.2-6.2h40.73c3.42,0,6.2,2.77,6.2,6.2v15.94c0,3.42-2.77,6.2-6.2,6.2H24.46Zm-20.36-6.72V2.66c0-1.47,1.19-2.66,2.66-2.66,1.34,0,2.46,1,2.63,2.3l.02.36v18.91c-.82-.2-1.68-.31-2.57-.31-.95,0-1.87.12-2.75.36Zm20.36,1.41h40.73c.49,0,.89-.4.89-.89V6.2c0-.49-.4-.89-.89-.89H24.46c-.49,0-.89.4-.89.89v15.94c0,.49.4.89.89.89Zm-17.71,15.61c-3.73,0-6.76-3.03-6.76-6.76s3.03-6.76,6.76-6.76,6.76,3.03,6.76,6.76-3.03,6.76-6.76,6.76Zm17.72,25.12c-3.42,0-6.2-2.77-6.2-6.2v-15.94c0-3.42,2.77-6.2,6.2-6.2h40.73c3.42,0,6.2,2.77,6.2,6.2v15.94c0,3.25-2.5,5.92-5.69,6.18l-.51.02H24.48Zm0-5.31h40.73l.2-.02c.39-.09.68-.44.68-.86v-15.94c0-.49-.4-.89-.89-.89H24.48c-.49,0-.89.4-.89.89v15.94c0,.49.4.89.89.89Zm-17.72,5.31c-1.34,0-2.46-1-2.63-2.3l-.02-.36v-18.95c.87.23,1.8.36,2.74.36.89,0,1.75-.11,2.57-.31v18.91c0,1.47-1.19,2.66-2.66,2.66Z"/></g></g></g></svg>